<svg width="67" height="56" style="" viewBox="0 0 67 56" fill="none" xmlns="http://www.w3.org/2000/svg">
	<g clip-path="url(#Frame_clip0-11-2)">
		<path opacity="0.7"
			d="M67.4131 -0.391989V7.81111L67.4009 56.3767H54.2246V4.38441L58.3542 0.179307C58.5286 -0.0091926 58.7416 -0.157792 58.9786 -0.256392C59.2157 -0.354992 59.4712 -0.401289 59.7278 -0.391989H67.4131Z"
			fill="#111111" />
		<path opacity="0.7" fill-rule="evenodd" clip-rule="evenodd"
			d="M47.2611 37.9002C46.3314 36.7082 45.4042 35.5193 44.4941 34.6093C42.8107 32.9318 41.1391 31.2423 39.4689 29.5542C38.6353 28.7118 37.8021 27.8696 36.9678 27.0295V21.1866L36.9706 21.1745C36.9631 20.9179 37.0111 20.6628 37.1113 20.4265C37.1779 20.2693 37.2666 20.1229 37.3743 19.9916L50.1478 7.75461V8.40801V39.6833C50.147 39.7273 50.1486 39.8796 50.1506 40.0748C50.1553 40.5281 50.1625 41.2131 50.1478 41.3143C49.1939 40.3786 48.2262 39.1377 47.2611 37.9002Z"
			fill="#111111" />
		<path d="M-0.199799 14.7681V33.2004L23.0568 56.3767H41.5516L-0.199799 14.7681Z" fill="#111111" />
		<path d="M-0.199799 56.3767H16.8949L-0.199799 39.3445V56.3767Z" fill="#111111" />
		<path
			d="M47.7865 56.3767H66.0998L10.8673 0.179794C10.693 -0.0085061 10.48 -0.157005 10.243 -0.255505C10.006 -0.354005 9.7505 -0.400204 9.4941 -0.390904H-0.181297V7.8037L47.7865 56.3767Z"
			fill="#111111" />
	</g>
	<defs>
		<clipPath id="Frame_clip0-11-2">
			<rect width="67" height="56" fill="white" />
		</clipPath>
	</defs>
</svg>
